<svg width="20" height="23" viewBox="0 0 20 23" fill="none" xmlns="http://www.w3.org/2000/svg">
<path fill-rule="evenodd" clip-rule="evenodd" d="M13.939 0.186006C14.1947 0.14574 14.456 0.206183 14.6681 0.354625C14.8801 0.503067 15.0263 0.727943 15.076 0.981967C15.273 2.3139 15.326 3.70283 14.896 4.99777C15.232 5.03577 15.587 5.11576 15.961 5.24875C17.666 5.85672 18.677 7.22266 19.249 8.61059C19.3158 8.77229 19.339 8.94868 19.3163 9.12216C19.2936 9.29564 19.2258 9.46012 19.1196 9.59918C19.0134 9.73824 18.8726 9.84701 18.7113 9.91463C18.5499 9.98225 18.3736 10.0063 18.2 9.98452C16.84 9.81353 16 11.2885 16 12.4714C16 13.6653 16.862 15.1573 18.234 14.9543C18.4047 14.929 18.5791 14.9482 18.7401 15.0103C18.9012 15.0723 19.0434 15.1749 19.153 15.3082C19.2627 15.4415 19.3359 15.6009 19.3657 15.7708C19.3955 15.9408 19.3808 16.1156 19.323 16.2782C18.404 18.8681 16.613 21.368 14.513 22.6229C14.2436 22.7884 13.9436 22.8981 13.631 22.9456C13.3184 22.993 12.9994 22.9771 12.693 22.8989C12.228 22.7869 11.805 22.5589 11.39 22.3319C10.799 22.0079 10.418 21.8209 10 21.8209C9.582 21.8209 9.201 22.0079 8.61 22.3309C8.195 22.5599 7.772 22.7869 7.307 22.8989C7.00062 22.9771 6.68163 22.9931 6.36898 22.9456C6.05633 22.8982 5.7564 22.7885 5.487 22.6229C3.948 21.7029 2.587 20.123 1.616 18.3611C0.64 16.5942 0 14.5423 0 12.6144C0 11.4844 0.184 9.98052 0.755 8.60059C1.328 7.21566 2.338 5.85472 4.039 5.24776C6.011 4.54379 7.447 5.32975 8.439 5.95672C8.452 5.00477 8.611 3.69183 9.336 2.65688C10.34 1.22296 12.251 0.450993 13.94 0.185006L13.939 0.186006ZM4.71 7.13266C5.867 6.71968 6.608 7.15966 7.62 7.80863C8.342 8.2726 9.11 8.74058 9.999 8.74058C10.888 8.74058 11.656 8.2726 12.378 7.80863C13.39 7.15866 14.131 6.71968 15.288 7.13266C15.872 7.34065 16.348 7.70963 16.73 8.19761C15.078 8.80958 14 10.5845 14 12.4714C14 14.4343 15.167 16.2772 16.934 16.8142C16.071 18.5961 14 20.791 13.487 20.906C13.089 20.996 12.643 20.738 12.351 20.578C11.617 20.175 10.855 19.82 10 19.82C9.028 19.82 8.232 20.257 7.706 20.547C7.394 20.717 6.883 21.127 6.513 20.907C5.362 20.217 4.222 18.9441 3.367 17.3942C2.514 15.8492 2 14.1293 2 12.6144C2 11.6674 2.159 10.4385 2.603 9.36555C3.045 8.2996 3.72 7.48564 4.71 7.13266ZM12.688 5.00477C12.178 5.73373 11.265 6.12171 10.443 6.3867C10.411 5.52374 10.463 4.53279 10.973 3.80383C11.483 3.07586 12.397 2.68688 13.219 2.4219C13.251 3.28485 13.199 4.2758 12.689 5.00477H12.688Z" fill="#FFFFFF"/>
</svg>
