<svg width="16" height="16" viewBox="0 0 16 16" fill="none" xmlns="http://www.w3.org/2000/svg">
<path fill-rule="evenodd" clip-rule="evenodd" d="M13.7399 3.47146C13.8094 3.52484 13.8677 3.59139 13.9114 3.6673C13.9551 3.74321 13.9835 3.82699 13.9948 3.91386C14.0061 4.00073 14.0002 4.08898 13.9774 4.17357C13.9546 4.25816 13.9154 4.33742 13.8619 4.40684L7.19528 13.0739C7.13744 13.1491 7.06423 13.2111 6.98053 13.2557C6.89683 13.3003 6.80457 13.3266 6.70992 13.3327C6.61527 13.3388 6.5204 13.3247 6.43165 13.2912C6.3429 13.2577 6.26232 13.2057 6.19528 13.1386L2.86195 9.8051C2.74051 9.67936 2.67331 9.51095 2.67483 9.33614C2.67635 9.16133 2.74646 8.99412 2.87007 8.87051C2.99367 8.7469 3.16088 8.67678 3.33568 8.67526C3.51048 8.67374 3.67888 8.74094 3.80461 8.86239L6.60128 11.6592L12.8046 3.59346C12.858 3.524 12.9245 3.46574 13.0004 3.42201C13.0763 3.37828 13.1601 3.34994 13.247 3.33861C13.3339 3.32728 13.4221 3.33318 13.5067 3.35597C13.5913 3.37877 13.6705 3.41801 13.7399 3.47146Z" fill="white"/>
</svg>
