<svg width="13" height="22" viewBox="0 0 13 22" fill="none" xmlns="http://www.w3.org/2000/svg">
<path fill-rule="evenodd" clip-rule="evenodd" d="M1.05746 21.276C0.807495 21.026 0.667074 20.6869 0.667074 20.3333C0.667074 19.9798 0.807495 19.6407 1.05746 19.3907L9.44812 11L1.05746 2.60933C0.814581 2.35786 0.680188 2.02106 0.683226 1.67146C0.686264 1.32187 0.826489 0.987451 1.0737 0.740241C1.32091 0.49303 1.65533 0.352803 2.00492 0.349765C2.35452 0.346728 2.69132 0.48112 2.94279 0.723998L12.2761 10.0573C12.5261 10.3074 12.6665 10.6464 12.6665 11C12.6665 11.3536 12.5261 11.6926 12.2761 11.9427L2.94279 21.276C2.69275 21.526 2.35367 21.6664 2.00012 21.6664C1.64657 21.6664 1.30749 21.526 1.05746 21.276Z" fill="white"/>
</svg>
